<svg xmlns="http://www.w3.org/2000/svg" viewBox="0 0 91.36 100"><path d="M8.94 1.34a15.59 15.59 0 0 1 9.36-1c2.81.52 5.24 2.11 7.7 3.5C28 5 30 6.1 32 7.35c-1.21 1.91-2.84 3.49-4.19 5.28a61.16 61.16 0 0 0 3.49 78.73c.36.38.73.91.48 1.44-1.68 1.17-3.57 2-5.31 3-2.46 1.34-4.78 3.07-7.56 3.7A15.43 15.43 0 0 1 7.66 98 15.22 15.22 0 0 1 0 85.08V17.89a26.35 26.35 0 0 1 .28-5.47A15 15 0 0 1 8.94 1.34z" fill="#0079d4"/><path d="M28.32 45.07A47.67 47.67 0 0 1 44 14.18c4 2.06 7.79 4.53 11.77 6.64 2.72 1.62 5.51 3.09 8.21 4.75-1.5 1.29-3.34 2.1-4.84 3.39a27.33 27.33 0 0 0-9.66 16.7A27 27 0 0 0 60.5 72a31.12 31.12 0 0 1 3.5 2.42c-6.63 3.83-13.27 7.67-20 11.31a47.51 47.51 0 0 1-15.14-27c-.86-4.48-.61-9.1-.54-13.66z" fill="#00a0f9"/><path d="M74.32 34.91a15.22 15.22 0 0 1 10.21 2.44A14.25 14.25 0 0 1 91 46.84a15.26 15.26 0 0 1-1.78 11 21.25 21.25 0 0 1-3.89 4.42c-1.91 1.8-4.6 2.31-7.09 2.79a15.24 15.24 0 0 1-16.86-11.76 16.4 16.4 0 0 1 .68-9c1.85-5.16 6.99-8.59 12.26-9.38z" fill="#5bd3fb"/></svg>